<svg width="23" height="22" viewBox="0 0 23 22" fill="none" xmlns="http://www.w3.org/2000/svg">
<path d="M16.0238 1.97563C17.2526 1.97916 18.4301 2.45045 19.299 3.28657C20.1679 4.12269 20.6576 5.25569 20.6613 6.43813V15.3622C20.6576 16.5446 20.1679 17.6776 19.299 18.5137C18.4301 19.3499 17.2526 19.8211 16.0238 19.8247H6.74994C5.52114 19.8211 4.34372 19.3499 3.47482 18.5137C2.60593 17.6776 2.11616 16.5446 2.11249 15.3622V6.43813C2.11616 5.25569 2.60593 4.12269 3.47482 3.28657C4.34372 2.45045 5.52114 1.97916 6.74994 1.97563H16.0238ZM16.0238 0.190918H6.74994C3.1792 0.190918 0.257812 3.00209 0.257812 6.43813V15.3622C0.257812 18.7982 3.1792 21.6094 6.74994 21.6094H16.0238C19.5946 21.6094 22.516 18.7982 22.516 15.3622V6.43813C22.516 3.00209 19.5946 0.190918 16.0238 0.190918Z" fill="#0152A8"/>
<path d="M17.4149 6.43854C17.1398 6.43854 16.8708 6.36003 16.642 6.21294C16.4132 6.06584 16.2349 5.85677 16.1297 5.61217C16.0244 5.36756 15.9968 5.0984 16.0505 4.83873C16.1042 4.57905 16.2367 4.34053 16.4312 4.15331C16.6258 3.9661 16.8736 3.83861 17.1435 3.78695C17.4133 3.7353 17.6931 3.76181 17.9473 3.86313C18.2015 3.96445 18.4187 4.13603 18.5716 4.35617C18.7244 4.57631 18.806 4.83512 18.806 5.09989C18.8064 5.27579 18.7707 5.45003 18.7009 5.61261C18.6312 5.7752 18.5287 5.92292 18.3994 6.0473C18.2702 6.17168 18.1167 6.27027 17.9477 6.33741C17.7788 6.40455 17.5977 6.43892 17.4149 6.43854ZM11.3868 7.33066C12.1205 7.33066 12.8378 7.54003 13.4479 7.9323C14.058 8.32456 14.5335 8.8821 14.8143 9.53442C15.0951 10.1867 15.1685 10.9045 15.0254 11.597C14.8822 12.2895 14.5289 12.9256 14.0101 13.4249C13.4912 13.9241 12.8302 14.2641 12.1106 14.4019C11.3909 14.5396 10.645 14.4689 9.96711 14.1987C9.28922 13.9285 8.70982 13.471 8.30217 12.8839C7.89453 12.2968 7.67695 11.6066 7.67695 10.9006C7.678 9.95408 8.0692 9.04664 8.7647 8.37738C9.46021 7.70811 10.4032 7.33167 11.3868 7.33066ZM11.3868 5.54594C10.2862 5.54594 9.2104 5.85999 8.29531 6.44836C7.38023 7.03673 6.66701 7.87301 6.24584 8.85144C5.82468 9.82987 5.71448 10.9065 5.92919 11.9452C6.1439 12.9839 6.67387 13.938 7.45208 14.6868C8.2303 15.4357 9.2218 15.9457 10.3012 16.1523C11.3806 16.3589 12.4995 16.2529 13.5163 15.8476C14.533 15.4423 15.4021 14.756 16.0136 13.8754C16.625 12.9949 16.9513 11.9596 16.9513 10.9006C16.9513 9.48043 16.3651 8.11846 15.3215 7.11428C14.278 6.11009 12.8626 5.54594 11.3868 5.54594Z" fill="#0152A8"/>
</svg>
