<svg width="22" height="18" viewBox="0 0 22 18" fill="none" xmlns="http://www.w3.org/2000/svg">
<path d="M21.6117 2.22475C20.8063 2.57446 19.9541 2.80485 19.0821 2.90865C19.9985 2.37243 20.6877 1.52054 21.0203 0.512761C20.1539 1.01902 19.2076 1.37424 18.2219 1.5632C17.8069 1.12851 17.3077 0.782703 16.7547 0.546798C16.2018 0.310892 15.6066 0.189815 15.0053 0.190926C12.571 0.190926 10.6011 2.13088 10.6011 4.5223C10.5993 4.85493 10.6375 5.18658 10.7147 5.51015C8.96912 5.42838 7.25986 4.98341 5.69625 4.20371C4.13265 3.424 2.74913 2.32673 1.63421 0.982105C1.24306 1.64103 1.03621 2.39284 1.03525 3.15897C1.03525 4.66087 1.81939 5.98844 3.00343 6.76621C2.30192 6.74957 1.61479 6.56403 1.00036 6.22535V6.27898C1.00036 8.37986 2.52123 10.1276 4.53414 10.5254C4.15562 10.6263 3.76555 10.6774 3.37381 10.6774C3.09584 10.6779 2.8185 10.6509 2.54583 10.5969C3.10542 12.3179 4.73409 13.5695 6.66335 13.6052C5.09569 14.8125 3.171 15.465 1.19181 15.4602C0.8405 15.4597 0.489514 15.4388 0.140625 15.3977C2.15406 16.6824 4.49453 17.362 6.88343 17.3555C14.9959 17.3555 19.4279 10.7534 19.4279 5.0274C19.4279 4.83966 19.423 4.65193 19.414 4.46866C20.2743 3.8572 21.0185 3.09733 21.6117 2.22475Z" fill="#0152A8"/>
</svg>
